<svg xmlns="http://www.w3.org/2000/svg" xmlns:xlink="http://www.w3.org/1999/xlink" width="1434.162" height="672.247" viewBox="0 0 1434.162 672.247"><defs><style>.a{fill:none;}.b{opacity:0.33;}.c{opacity:0.43;clip-path:url(#a);}.d{fill:rgba(225,183,107,0.55);}.e{filter:url(#x);}.f{filter:url(#v);}.g{filter:url(#t);}.h{filter:url(#r);}.i{filter:url(#p);}.j{filter:url(#n);}.k{filter:url(#l);}.l{filter:url(#j);}.m{filter:url(#h);}.n{filter:url(#f);}.o{filter:url(#d);}.p{filter:url(#b);}</style><clipPath id="a"><rect class="a" width="1434.162" height="672.247"/></clipPath><filter id="b" x="3.71" y="3.711" width="459.741" height="492.826" filterUnits="userSpaceOnUse"><feOffset dy="5" input="SourceAlpha"/><feGaussianBlur stdDeviation="3" result="c"/><feFlood flood-opacity="0.729"/><feComposite operator="in" in2="c"/><feComposite in="SourceGraphic"/></filter><filter id="d" x="358.529" y="5.71" width="327.923" height="346.426" filterUnits="userSpaceOnUse"><feOffset dy="5" input="SourceAlpha"/><feGaussianBlur stdDeviation="3" result="e"/><feFlood flood-opacity="0.729"/><feComposite operator="in" in2="e"/><feComposite in="SourceGraphic"/></filter><filter id="f" x="71.529" y="316.71" width="327.922" height="346.426" filterUnits="userSpaceOnUse"><feOffset dy="5" input="SourceAlpha"/><feGaussianBlur stdDeviation="3" result="g"/><feFlood flood-opacity="0.729"/><feComposite operator="in" in2="g"/><feComposite in="SourceGraphic"/></filter><filter id="h" x="290.71" y="175.711" width="459.741" height="492.826" filterUnits="userSpaceOnUse"><feOffset dy="5" input="SourceAlpha"/><feGaussianBlur stdDeviation="3" result="i"/><feFlood flood-opacity="0.729"/><feComposite operator="in" in2="i"/><feComposite in="SourceGraphic"/></filter><filter id="j" x="709.71" y="3.711" width="459.741" height="492.826" filterUnits="userSpaceOnUse"><feOffset dy="5" input="SourceAlpha"/><feGaussianBlur stdDeviation="3" result="k"/><feFlood flood-opacity="0.729"/><feComposite operator="in" in2="k"/><feComposite in="SourceGraphic"/></filter><filter id="l" x="1064.529" y="5.71" width="327.922" height="346.426" filterUnits="userSpaceOnUse"><feOffset dy="5" input="SourceAlpha"/><feGaussianBlur stdDeviation="3" result="m"/><feFlood flood-opacity="0.729"/><feComposite operator="in" in2="m"/><feComposite in="SourceGraphic"/></filter><filter id="n" x="777.529" y="316.71" width="327.922" height="346.426" filterUnits="userSpaceOnUse"><feOffset dy="5" input="SourceAlpha"/><feGaussianBlur stdDeviation="3" result="o"/><feFlood flood-opacity="0.729"/><feComposite operator="in" in2="o"/><feComposite in="SourceGraphic"/></filter><filter id="p" x="996.71" y="175.711" width="459.741" height="492.826" filterUnits="userSpaceOnUse"><feOffset dy="5" input="SourceAlpha"/><feGaussianBlur stdDeviation="3" result="q"/><feFlood flood-opacity="0.729"/><feComposite operator="in" in2="q"/><feComposite in="SourceGraphic"/></filter><filter id="r" x="1415.71" y="3.711" width="459.741" height="492.826" filterUnits="userSpaceOnUse"><feOffset dy="5" input="SourceAlpha"/><feGaussianBlur stdDeviation="3" result="s"/><feFlood flood-opacity="0.729"/><feComposite operator="in" in2="s"/><feComposite in="SourceGraphic"/></filter><filter id="t" x="1770.529" y="5.71" width="327.922" height="346.426" filterUnits="userSpaceOnUse"><feOffset dy="5" input="SourceAlpha"/><feGaussianBlur stdDeviation="3" result="u"/><feFlood flood-opacity="0.729"/><feComposite operator="in" in2="u"/><feComposite in="SourceGraphic"/></filter><filter id="v" x="1483.529" y="316.71" width="327.922" height="346.426" filterUnits="userSpaceOnUse"><feOffset dy="5" input="SourceAlpha"/><feGaussianBlur stdDeviation="3" result="w"/><feFlood flood-opacity="0.729"/><feComposite operator="in" in2="w"/><feComposite in="SourceGraphic"/></filter><filter id="x" x="1702.71" y="175.711" width="459.741" height="492.826" filterUnits="userSpaceOnUse"><feOffset dy="5" input="SourceAlpha"/><feGaussianBlur stdDeviation="3" result="y"/><feFlood flood-opacity="0.729"/><feComposite operator="in" in2="y"/><feComposite in="SourceGraphic"/></filter></defs><g class="b" transform="translate(14.921 9.355)"><g class="c" transform="translate(-14.921 -9.355)"><g transform="translate(14.921 9.355)"><g transform="translate(-2.211 -1.645)"><g class="p" transform="matrix(1, 0, 0, 1, -12.71, -7.71)"><rect class="d" width="548" height="101" rx="50.5" transform="translate(12.71 414.95) rotate(-48)"/></g><g class="o" transform="matrix(1, 0, 0, 1, -12.71, -7.71)"><rect class="d" width="351" height="101" rx="50.5" transform="translate(367.53 270.55) rotate(-48)"/></g><g class="n" transform="matrix(1, 0, 0, 1, -12.71, -7.71)"><rect class="d" width="351" height="101" rx="50.5" transform="translate(80.53 581.55) rotate(-48)"/></g><g class="m" transform="matrix(1, 0, 0, 1, -12.71, -7.71)"><rect class="d" width="548" height="101" rx="50.5" transform="translate(299.71 586.95) rotate(-48)"/></g></g></g><g transform="translate(720.921 9.355)"><g transform="translate(-2.211 -1.645)"><g class="l" transform="matrix(1, 0, 0, 1, -718.71, -7.71)"><rect class="d" width="548" height="101" rx="50.5" transform="translate(718.71 414.95) rotate(-48)"/></g><g class="k" transform="matrix(1, 0, 0, 1, -718.71, -7.71)"><rect class="d" width="351" height="101" rx="50.5" transform="translate(1073.53 270.55) rotate(-48)"/></g><g class="j" transform="matrix(1, 0, 0, 1, -718.71, -7.71)"><rect class="d" width="351" height="101" rx="50.5" transform="translate(786.53 581.55) rotate(-48)"/></g><g class="i" transform="matrix(1, 0, 0, 1, -718.71, -7.71)"><rect class="d" width="548" height="101" rx="50.5" transform="translate(1005.71 586.95) rotate(-48)"/></g></g></g><g transform="translate(1426.921 9.355)"><g transform="translate(-2.211 -1.645)"><g class="h" transform="matrix(1, 0, 0, 1, -1424.71, -7.71)"><rect class="d" width="548" height="101" rx="50.5" transform="translate(1424.71 414.95) rotate(-48)"/></g><g class="g" transform="matrix(1, 0, 0, 1, -1424.71, -7.71)"><rect class="d" width="351" height="101" rx="50.5" transform="translate(1779.53 270.55) rotate(-48)"/></g><g class="f" transform="matrix(1, 0, 0, 1, -1424.71, -7.71)"><rect class="d" width="351" height="101" rx="50.5" transform="translate(1492.53 581.55) rotate(-48)"/></g><g class="e" transform="matrix(1, 0, 0, 1, -1424.71, -7.71)"><rect class="d" width="548" height="101" rx="50.5" transform="translate(1711.71 586.95) rotate(-48)"/></g></g></g></g></g></svg>